<svg width="24" height="24" viewBox="0 0 24 24" fill="none" xmlns="http://www.w3.org/2000/svg">
<mask id="path-1-inside-1_32_528" fill="white">
<path fill-rule="evenodd" clip-rule="evenodd" d="M16.5882 6.5L16.2953 6.20711L13.5882 3.5H10.4167L7.70955 6.20711L7.41666 6.5H7.00244H3.00244C2.66246 6.5 2.13024 6.61022 1.71175 6.91153C1.34424 7.17614 1.00244 7.62592 1.00244 8.5V18.5C1.00244 18.84 1.11266 19.3722 1.41398 19.7907C1.67858 20.1582 2.12836 20.5 3.00244 20.5H21.0024C21.3424 20.5 21.8746 20.3898 22.2931 20.0885C22.6606 19.8239 23.0024 19.3741 23.0024 18.5V8.5C23.0024 8.16002 22.8922 7.6278 22.5909 7.2093C22.3263 6.8418 21.8765 6.5 21.0024 6.5H17.0024H16.5882ZM10.0024 2.5H14.0024L17.0024 5.5H21.0024C23.4024 5.5 24.0024 7.5 24.0024 8.5V18.5C24.0024 20.9 22.0024 21.5 21.0024 21.5H3.00244C0.602441 21.5 0.00244141 19.5 0.00244141 18.5V8.5C0.00244141 6.1 2.00244 5.5 3.00244 5.5H7.00244L10.0024 2.5ZM12.0024 17.5C14.2116 17.5 16.0024 15.7091 16.0024 13.5C16.0024 11.2909 14.2116 9.5 12.0024 9.5C9.7933 9.5 8.00244 11.2909 8.00244 13.5C8.00244 15.7091 9.7933 17.5 12.0024 17.5ZM12.0024 18.5C14.7639 18.5 17.0024 16.2614 17.0024 13.5C17.0024 10.7386 14.7639 8.5 12.0024 8.5C9.24102 8.5 7.00244 10.7386 7.00244 13.5C7.00244 16.2614 9.24102 18.5 12.0024 18.5ZM4.50244 11.5C5.33087 11.5 6.00244 10.8284 6.00244 10C6.00244 9.17157 5.33087 8.5 4.50244 8.5C3.67401 8.5 3.00244 9.17157 3.00244 10C3.00244 10.8284 3.67401 11.5 4.50244 11.5Z"/>
</mask>
<path fill-rule="evenodd" clip-rule="evenodd" d="M16.5882 6.5L16.2953 6.20711L13.5882 3.5H10.4167L7.70955 6.20711L7.41666 6.5H7.00244H3.00244C2.66246 6.5 2.13024 6.61022 1.71175 6.91153C1.34424 7.17614 1.00244 7.62592 1.00244 8.5V18.5C1.00244 18.84 1.11266 19.3722 1.41398 19.7907C1.67858 20.1582 2.12836 20.5 3.00244 20.5H21.0024C21.3424 20.5 21.8746 20.3898 22.2931 20.0885C22.6606 19.8239 23.0024 19.3741 23.0024 18.5V8.5C23.0024 8.16002 22.8922 7.6278 22.5909 7.2093C22.3263 6.8418 21.8765 6.5 21.0024 6.5H17.0024H16.5882ZM10.0024 2.5H14.0024L17.0024 5.5H21.0024C23.4024 5.5 24.0024 7.5 24.0024 8.5V18.5C24.0024 20.9 22.0024 21.5 21.0024 21.5H3.00244C0.602441 21.5 0.00244141 19.5 0.00244141 18.5V8.5C0.00244141 6.1 2.00244 5.5 3.00244 5.5H7.00244L10.0024 2.5ZM12.0024 17.5C14.2116 17.5 16.0024 15.7091 16.0024 13.5C16.0024 11.2909 14.2116 9.5 12.0024 9.5C9.7933 9.5 8.00244 11.2909 8.00244 13.5C8.00244 15.7091 9.7933 17.5 12.0024 17.5ZM12.0024 18.5C14.7639 18.5 17.0024 16.2614 17.0024 13.5C17.0024 10.7386 14.7639 8.5 12.0024 8.5C9.24102 8.5 7.00244 10.7386 7.00244 13.5C7.00244 16.2614 9.24102 18.5 12.0024 18.5ZM4.50244 11.5C5.33087 11.5 6.00244 10.8284 6.00244 10C6.00244 9.17157 5.33087 8.5 4.50244 8.5C3.67401 8.5 3.00244 9.17157 3.00244 10C3.00244 10.8284 3.67401 11.5 4.50244 11.5Z" fill="#606A74"/>
<path d="M16.2953 6.20711L15.5882 6.91421L15.5882 6.91422L16.2953 6.20711ZM16.5882 6.5L15.8811 7.20711L16.174 7.5H16.5882V6.5ZM13.5882 3.5L14.2953 2.79289L14.0024 2.5H13.5882V3.5ZM10.4167 3.5V2.5H10.0024L9.70955 2.79289L10.4167 3.5ZM7.70955 6.20711L7.00244 5.5L7.00244 5.5L7.70955 6.20711ZM7.41666 6.5V7.5H7.83087L8.12376 7.20711L7.41666 6.5ZM1.71175 6.91153L2.29605 7.72307H2.29605L1.71175 6.91153ZM1.41398 19.7907L2.22551 19.2064L1.41398 19.7907ZM22.2931 20.0885L21.7088 19.2769L22.2931 20.0885ZM22.5909 7.2093L21.7794 7.79361V7.79361L22.5909 7.2093ZM14.0024 2.5L14.7095 1.79289L14.4167 1.5H14.0024V2.5ZM10.0024 2.5V1.5H9.58823L9.29533 1.79289L10.0024 2.5ZM17.0024 5.5L16.2953 6.20711L16.5882 6.5H17.0024V5.5ZM7.00244 5.5V6.5H7.41666L7.70955 6.20711L7.00244 5.5ZM15.5882 6.91422L15.8811 7.20711L17.2953 5.79289L17.0024 5.5L15.5882 6.91422ZM12.8811 4.20711L15.5882 6.91421L17.0024 5.5L14.2953 2.79289L12.8811 4.20711ZM10.4167 4.5H13.5882V2.5H10.4167V4.5ZM8.41665 6.91421L11.1238 4.20711L9.70955 2.79289L7.00244 5.5L8.41665 6.91421ZM8.12376 7.20711L8.41666 6.91421L7.00244 5.5L6.70955 5.79289L8.12376 7.20711ZM7.00244 7.5H7.41666V5.5H7.00244V7.5ZM3.00244 7.5H7.00244V5.5H3.00244V7.5ZM2.29605 7.72307C2.3924 7.6537 2.51937 7.59491 2.66171 7.55417C2.80523 7.51309 2.93072 7.5 3.00244 7.5V5.5C2.50172 5.5 1.75197 5.65034 1.12744 6.1L2.29605 7.72307ZM2.00244 8.5C2.00244 8.19627 2.06087 8.02705 2.10806 7.93555C2.1544 7.84568 2.21542 7.78112 2.29605 7.72307L1.12744 6.1C0.502265 6.55013 0.00244141 7.30021 0.00244141 8.5H2.00244ZM2.00244 18.5V8.5H0.00244141V18.5H2.00244ZM2.22551 19.2064C2.15614 19.11 2.09735 18.9831 2.05661 18.8407C2.01553 18.6972 2.00244 18.5717 2.00244 18.5H0.00244141C0.00244141 19.0007 0.152783 19.7505 0.602441 20.375L2.22551 19.2064ZM3.00244 19.5C2.69871 19.5 2.5295 19.4416 2.43799 19.3944C2.34812 19.348 2.28356 19.287 2.22551 19.2064L0.602441 20.375C1.05257 21.0002 1.80266 21.5 3.00244 21.5V19.5ZM21.0024 19.5H3.00244V21.5H21.0024V19.5ZM21.7088 19.2769C21.6125 19.3463 21.4855 19.4051 21.3432 19.4458C21.1997 19.4869 21.0742 19.5 21.0024 19.5V21.5C21.5032 21.5 22.2529 21.3497 22.8774 20.9L21.7088 19.2769ZM22.0024 18.5C22.0024 18.8037 21.944 18.9729 21.8968 19.0645C21.8505 19.1543 21.7895 19.2189 21.7088 19.2769L22.8774 20.9C23.5026 20.4499 24.0024 19.6998 24.0024 18.5H22.0024ZM22.0024 8.5V18.5H24.0024V8.5H22.0024ZM21.7794 7.79361C21.8487 7.88996 21.9075 8.01693 21.9483 8.15927C21.9894 8.30279 22.0024 8.42828 22.0024 8.5H24.0024C24.0024 7.99928 23.8521 7.24952 23.4024 6.625L21.7794 7.79361ZM21.0024 7.5C21.3062 7.5 21.4754 7.55843 21.5669 7.60562C21.6568 7.65196 21.7213 7.71298 21.7794 7.79361L23.4024 6.625C22.9523 5.99982 22.2022 5.5 21.0024 5.5V7.5ZM17.0024 7.5H21.0024V5.5H17.0024V7.5ZM16.5882 7.5H17.0024V5.5H16.5882V7.5ZM14.0024 1.5H10.0024V3.5H14.0024V1.5ZM17.7095 4.79289L14.7095 1.79289L13.2953 3.20711L16.2953 6.20711L17.7095 4.79289ZM21.0024 4.5H17.0024V6.5H21.0024V4.5ZM25.0024 8.5C25.0024 7.83998 24.8127 6.8722 24.214 6.0407C23.5786 5.1582 22.5284 4.5 21.0024 4.5V6.5C21.8765 6.5 22.3263 6.8418 22.5909 7.2093C22.8922 7.6278 23.0024 8.16002 23.0024 8.5H25.0024ZM25.0024 18.5V8.5H23.0024V18.5H25.0024ZM21.0024 22.5C21.6625 22.5 22.6302 22.3102 23.4617 21.7115C24.3442 21.0761 25.0024 20.0259 25.0024 18.5H23.0024C23.0024 19.3741 22.6606 19.8239 22.2931 20.0885C21.8746 20.3898 21.3424 20.5 21.0024 20.5V22.5ZM3.00244 22.5H21.0024V20.5H3.00244V22.5ZM-0.997559 18.5C-0.997559 19.16 -0.807778 20.1278 -0.209093 20.9593C0.426304 21.8418 1.47652 22.5 3.00244 22.5V20.5C2.12836 20.5 1.67858 20.1582 1.41398 19.7907C1.11266 19.3722 1.00244 18.84 1.00244 18.5H-0.997559ZM-0.997559 8.5V18.5H1.00244V8.5H-0.997559ZM3.00244 4.5C2.34242 4.5 1.37464 4.68978 0.543137 5.28847C-0.339359 5.92386 -0.997559 6.97408 -0.997559 8.5H1.00244C1.00244 7.62592 1.34424 7.17614 1.71175 6.91153C2.13024 6.61022 2.66246 6.5 3.00244 6.5V4.5ZM7.00244 4.5H3.00244V6.5H7.00244V4.5ZM9.29533 1.79289L6.29533 4.79289L7.70955 6.20711L10.7095 3.20711L9.29533 1.79289ZM15.0024 13.5C15.0024 15.1569 13.6593 16.5 12.0024 16.5V18.5C14.7639 18.5 17.0024 16.2614 17.0024 13.5H15.0024ZM12.0024 10.5C13.6593 10.5 15.0024 11.8431 15.0024 13.5H17.0024C17.0024 10.7386 14.7639 8.5 12.0024 8.5V10.5ZM9.00244 13.5C9.00244 11.8431 10.3456 10.5 12.0024 10.5V8.5C9.24102 8.5 7.00244 10.7386 7.00244 13.5H9.00244ZM12.0024 16.5C10.3456 16.5 9.00244 15.1569 9.00244 13.5H7.00244C7.00244 16.2614 9.24102 18.5 12.0024 18.5V16.5ZM16.0024 13.5C16.0024 15.7091 14.2116 17.5 12.0024 17.5V19.5C15.3161 19.5 18.0024 16.8137 18.0024 13.5H16.0024ZM12.0024 9.5C14.2116 9.5 16.0024 11.2909 16.0024 13.5H18.0024C18.0024 10.1863 15.3161 7.5 12.0024 7.5V9.5ZM8.00244 13.5C8.00244 11.2909 9.7933 9.5 12.0024 9.5V7.5C8.68873 7.5 6.00244 10.1863 6.00244 13.5H8.00244ZM12.0024 17.5C9.7933 17.5 8.00244 15.7091 8.00244 13.5H6.00244C6.00244 16.8137 8.68873 19.5 12.0024 19.5V17.5ZM5.00244 10C5.00244 10.2761 4.77858 10.5 4.50244 10.5V12.5C5.88315 12.5 7.00244 11.3807 7.00244 10H5.00244ZM4.50244 9.5C4.77858 9.5 5.00244 9.72386 5.00244 10H7.00244C7.00244 8.61929 5.88315 7.5 4.50244 7.5V9.5ZM4.00244 10C4.00244 9.72386 4.2263 9.5 4.50244 9.5V7.5C3.12173 7.5 2.00244 8.61929 2.00244 10H4.00244ZM4.50244 10.5C4.2263 10.5 4.00244 10.2761 4.00244 10H2.00244C2.00244 11.3807 3.12173 12.5 4.50244 12.5V10.5Z" fill="#606A74" mask="url(#path-1-inside-1_32_528)"/>
</svg>
