<svg width="16" height="16" viewBox="0 0 16 16" fill="none" xmlns="http://www.w3.org/2000/svg">
<path fill-rule="evenodd" clip-rule="evenodd" d="M3.50244 8C3.50244 5.48013 5.39597 3.5 7.65943 3.5C8.3461 3.5 8.9937 3.67948 9.56543 4.0001C9.52431 4.15988 9.50244 4.32739 9.50244 4.5C9.50244 5.60457 10.3979 6.5 11.5024 6.5C12.607 6.5 13.5024 5.60457 13.5024 4.5C13.5024 3.39543 12.607 2.5 11.5024 2.5C10.9304 2.5 10.4144 2.7402 10.0498 3.12525C9.3359 2.72591 8.52248 2.5 7.65943 2.5C4.77794 2.5 2.50244 4.99597 2.50244 8H3.50244ZM12.5024 8C12.5024 10.5029 10.5504 12.5 8.17876 12.5C7.54732 12.5 6.94904 12.3599 6.40881 12.1066C6.46963 11.9152 6.50244 11.7115 6.50244 11.5C6.50244 10.3954 5.60701 9.5 4.50244 9.5C3.39787 9.5 2.50244 10.3954 2.50244 11.5C2.50244 12.6046 3.39787 13.5 4.50244 13.5C5.0323 13.5 5.51403 13.294 5.87188 12.9576C6.57046 13.3058 7.35278 13.5 8.17876 13.5C11.1362 13.5 13.5024 11.021 13.5024 8H12.5024ZM11.5024 3.5C10.9502 3.5 10.5024 3.94772 10.5024 4.5C10.5024 5.05228 10.9502 5.5 11.5024 5.5C12.0547 5.5 12.5024 5.05228 12.5024 4.5C12.5024 3.94772 12.0547 3.5 11.5024 3.5ZM3.50244 11.5C3.50244 10.9477 3.95016 10.5 4.50244 10.5C5.05473 10.5 5.50244 10.9477 5.50244 11.5C5.50244 12.0523 5.05473 12.5 4.50244 12.5C3.95016 12.5 3.50244 12.0523 3.50244 11.5Z" fill="#1A1B1F"/>
</svg>
