<svg width="20" height="20" viewBox="0 0 20 20" fill="none" xmlns="http://www.w3.org/2000/svg">
<path fill-rule="evenodd" clip-rule="evenodd" d="M10.0013 0.24884C10.2774 0.24884 10.5013 0.472698 10.5013 0.74884V2.64908C10.5013 2.92522 10.2774 3.14908 10.0013 3.14908C9.72516 3.14908 9.5013 2.92522 9.5013 2.64908V0.74884C9.5013 0.472698 9.72516 0.24884 10.0013 0.24884ZM6.2522 7.27137C5.54578 8.25251 5.30052 9.45992 5.30052 10.25V15.9008H14.7019V10.25C14.7019 9.45992 14.4567 8.25251 13.7503 7.27137C13.0806 6.34122 11.9556 5.5493 10.0012 5.5493C8.04687 5.5493 6.92191 6.34122 6.2522 7.27137ZM4.30052 10.25C4.30052 8.34978 5.44066 4.5493 10.0012 4.5493C14.5618 4.5493 15.7019 8.34978 15.7019 10.25V15.9008V15.9507C16.3354 15.9508 17.6022 16.3308 17.6022 17.851V18.7512V19.7512H16.6022H3.40026H2.40026V18.7512V17.851C2.40026 17.2176 2.78031 15.9507 4.3005 15.9507H4.30052V15.9008V10.25ZM3.59184 17.2476C3.45549 17.437 3.40026 17.6943 3.40026 17.851V18.7512H16.6022V17.851C16.6022 17.4168 16.4437 17.242 16.3053 17.1423C16.1159 17.006 15.8586 16.9507 15.7019 16.9507H4.3005C3.86632 16.9507 3.69148 17.1093 3.59184 17.2476ZM10.0835 6.9065C9.81112 6.8611 9.5535 7.04511 9.50811 7.31749C9.46271 7.58988 9.64672 7.84749 9.9191 7.89289C10.3312 7.96157 10.9627 8.17296 11.4786 8.56847C11.9819 8.95436 12.3517 9.49272 12.3517 10.25C12.3517 10.5262 12.5755 10.75 12.8517 10.75C13.1278 10.75 13.3517 10.5262 13.3517 10.25C13.3517 9.10714 12.7713 8.2995 12.087 7.77486C11.4152 7.25984 10.6215 6.99617 10.0835 6.9065ZM0.5 8.79989C0.223858 8.79989 0 9.02375 0 9.29989C0 9.57603 0.223858 9.79989 0.5 9.79989H2.40024C2.67638 9.79989 2.90024 9.57603 2.90024 9.29989C2.90024 9.02375 2.67638 8.79989 2.40024 8.79989H0.5ZM3.47202 2.77061C3.66729 2.57535 3.98387 2.57535 4.17913 2.77061L5.60431 4.19579C5.79957 4.39105 5.79957 4.70764 5.60431 4.9029C5.40905 5.09816 5.09246 5.09816 4.8972 4.9029L3.47202 3.47772C3.27676 3.28246 3.27676 2.96587 3.47202 2.77061ZM17.1023 9.29994C17.1023 9.0238 17.3262 8.79994 17.6023 8.79994H19.5025C19.7787 8.79994 20.0025 9.0238 20.0025 9.29994C20.0025 9.57608 19.7787 9.79994 19.5025 9.79994H17.6023C17.3262 9.79994 17.1023 9.57608 17.1023 9.29994ZM17.4808 4.42779C17.6761 4.23253 17.6761 3.91594 17.4808 3.72068C17.2856 3.52542 16.969 3.52542 16.7737 3.72068L15.3485 5.14586C15.1533 5.34112 15.1533 5.65771 15.3485 5.85297C15.5438 6.04823 15.8604 6.04823 16.0556 5.85297L17.4808 4.42779Z" fill="black"/>
</svg>
