<svg width="16" height="16" viewBox="0 0 16 16" fill="none" xmlns="http://www.w3.org/2000/svg">
<path d="M9.73 8.36946C9.92446 8.54351 10.2177 8.54351 10.4122 8.36946C11.0238 7.81909 12.3113 6.63681 13.0343 5.78695C13.7181 4.98412 13.7792 3.80341 13.0343 3.0586C12.2894 2.3138 11.0818 2.3138 10.3353 3.0586L10.0703 3.3236L9.80528 3.0586C9.06036 2.3138 7.8528 2.3138 7.10631 3.0586C6.36139 3.80341 6.42255 4.98569 7.10631 5.78695C7.82928 6.63681 9.11681 7.81909 9.72843 8.36946H9.73Z" stroke="#1A1B1F" stroke-linecap="round" stroke-linejoin="round"/>
<path d="M2.43457 7.72473H4.78481L7.07038 9.5C7.07038 9.5 7.57038 10 7.57038 11" stroke="#1A1B1F" stroke-linecap="round" stroke-linejoin="round"/>
<path d="M4.54955 10.5L5.71838 11.3619H8.74433C8.74433 11.3619 9.5706 11.4874 9.56267 12.2782C9.56267 12.2782 9.70858 13.3564 8.7253 13.5H4.22919L2.57031 12" stroke="#1A1B1F" stroke-linecap="round" stroke-linejoin="round"/>
</svg>
