<svg width="20" height="20" viewBox="0 0 20 20" fill="none" xmlns="http://www.w3.org/2000/svg">
<g clip-path="url(#clip0_26_694)">
<path d="M14.0998 6.29716C15.4442 6.29716 16.5341 5.20729 16.5341 3.86287C16.5341 2.51846 15.4442 1.42859 14.0998 1.42859C12.7554 1.42859 11.6655 2.51846 11.6655 3.86287C11.6655 5.20729 12.7554 6.29716 14.0998 6.29716Z" stroke="#1A1B1F" stroke-linecap="round" stroke-linejoin="round"/>
<path d="M5.90548 12.4343C7.2499 12.4343 8.33976 11.3444 8.33976 10C8.33976 8.6556 7.2499 7.56573 5.90548 7.56573C4.56106 7.56573 3.47119 8.6556 3.47119 10C3.47119 11.3444 4.56106 12.4343 5.90548 12.4343Z" stroke="#1A1B1F" stroke-linecap="round" stroke-linejoin="round"/>
<path d="M14.0998 18.5715C15.4442 18.5715 16.5341 17.4816 16.5341 16.1372C16.5341 14.7927 15.4442 13.7029 14.0998 13.7029C12.7554 13.7029 11.6655 14.7927 11.6655 16.1372C11.6655 17.4816 12.7554 18.5715 14.0998 18.5715Z" stroke="#1A1B1F" stroke-linecap="round" stroke-linejoin="round"/>
<path d="M7.85986 11.4657L12.1456 14.6714" stroke="#1A1B1F" stroke-linecap="round" stroke-linejoin="round"/>
<path d="M12.1456 5.32855L7.85986 8.53427" stroke="#1A1B1F" stroke-linecap="round" stroke-linejoin="round"/>
</g>
<defs>
<clipPath id="clip0_26_694">
<rect width="13.92" height="18" fill="white" transform="translate(3.04248 1)"/>
</clipPath>
</defs>
</svg>
