<svg width="20" height="20" viewBox="0 0 20 20" fill="none" xmlns="http://www.w3.org/2000/svg">
<mask id="path-1-inside-1_25_124" fill="white">
<path fill-rule="evenodd" clip-rule="evenodd" d="M17.8687 16.1718C19.2038 14.4721 20 12.329 20 10C20 4.47715 15.5228 0 10 0C4.47715 0 0 4.47715 0 10C0 15.5228 4.47715 20 10 20C12.329 20 14.4721 19.2038 16.1718 17.8687L19 19L17.8687 16.1718Z"/>
</mask>
<path fill-rule="evenodd" clip-rule="evenodd" d="M17.8687 16.1718C19.2038 14.4721 20 12.329 20 10C20 4.47715 15.5228 0 10 0C4.47715 0 0 4.47715 0 10C0 15.5228 4.47715 20 10 20C12.329 20 14.4721 19.2038 16.1718 17.8687L19 19L17.8687 16.1718Z" fill="white"/>
<path d="M17.8687 16.1718L17.0823 15.5541L16.7261 16.0077L16.9403 16.5432L17.8687 16.1718ZM16.1718 17.8687L16.5432 16.9403L16.0077 16.7261L15.5541 17.0823L16.1718 17.8687ZM19 19L18.6286 19.9285L20.7951 20.7951L19.9285 18.6286L19 19ZM19 10C19 12.0972 18.2839 14.0243 17.0823 15.5541L18.6552 16.7895C20.1236 14.9199 21 12.5609 21 10H19ZM10 1C14.9706 1 19 5.02944 19 10H21C21 3.92487 16.0751 -1 10 -1V1ZM1 10C1 5.02944 5.02944 1 10 1V-1C3.92487 -1 -1 3.92487 -1 10H1ZM10 19C5.02944 19 1 14.9706 1 10H-1C-1 16.0751 3.92487 21 10 21V19ZM15.5541 17.0823C14.0243 18.2839 12.0972 19 10 19V21C12.5609 21 14.9199 20.1236 16.7895 18.6552L15.5541 17.0823ZM15.8004 18.7972L18.6286 19.9285L19.3714 18.0715L16.5432 16.9403L15.8004 18.7972ZM19.9285 18.6286L18.7972 15.8004L16.9403 16.5432L18.0715 19.3714L19.9285 18.6286Z" fill="#9BA1AA" mask="url(#path-1-inside-1_25_124)"/>
<path d="M6 13.5C7.16667 15.0092 10.4 17.1222 14 13.5" stroke="#9BA1AA" stroke-linecap="round" stroke-linejoin="round"/>
</svg>
