<svg width="20" height="20" viewBox="0 0 20 20" fill="none" xmlns="http://www.w3.org/2000/svg">
<path d="M0.5 19.5V9.22268L10 0.672681L19.5 9.22268V19.5H0.5Z" stroke="#9BA1AA" stroke-linecap="round" stroke-linejoin="round"/>
<path d="M9.5 19V19.5H10.5V19H9.5ZM10.5 14C10.5 13.7239 10.2761 13.5 10 13.5C9.72386 13.5 9.5 13.7239 9.5 14H10.5ZM10.5 19V14H9.5V19H10.5Z" fill="#9BA1AA"/>
<path d="M9.5 19V19.5H10.5V19H9.5ZM10.5 14C10.5 13.7239 10.2761 13.5 10 13.5C9.72386 13.5 9.5 13.7239 9.5 14H10.5ZM10.5 19V14H9.5V19H10.5Z" fill="#9BA1AA"/>
</svg>
