<svg width="20" height="20" viewBox="0 0 20 20" fill="none" xmlns="http://www.w3.org/2000/svg">
<path d="M20 10C20 15.5228 15.5228 20 10 20C4.47715 20 0 15.5228 0 10C0 4.47715 4.47715 0 10 0C15.5228 0 20 4.47715 20 10Z" fill="#1A1B1F"/>
<mask id="path-2-inside-1_25_110" fill="white">
<path fill-rule="evenodd" clip-rule="evenodd" d="M10.5 5V4.5H9.5V5V9.5H5H4.5V10.5H5H9.5V15V15.5H10.5V15V10.5H15H15.5V9.5H15H10.5V5Z"/>
</mask>
<path d="M10.5 4.5H11.5C11.5 3.94772 11.0523 3.5 10.5 3.5V4.5ZM9.5 4.5V3.5C8.94772 3.5 8.5 3.94772 8.5 4.5H9.5ZM9.5 9.5V10.5C10.0523 10.5 10.5 10.0523 10.5 9.5H9.5ZM4.5 9.5V8.5C3.94772 8.5 3.5 8.94772 3.5 9.5H4.5ZM4.5 10.5H3.5C3.5 11.0523 3.94772 11.5 4.5 11.5V10.5ZM9.5 10.5H10.5C10.5 9.94772 10.0523 9.5 9.5 9.5V10.5ZM9.5 15.5H8.5C8.5 16.0523 8.94772 16.5 9.5 16.5V15.5ZM10.5 15.5V16.5C11.0523 16.5 11.5 16.0523 11.5 15.5H10.5ZM10.5 10.5V9.5C9.94772 9.5 9.5 9.94772 9.5 10.5H10.5ZM15.5 10.5V11.5C16.0523 11.5 16.5 11.0523 16.5 10.5H15.5ZM15.5 9.5H16.5C16.5 8.94772 16.0523 8.5 15.5 8.5V9.5ZM10.5 9.5H9.5C9.5 10.0523 9.94772 10.5 10.5 10.5V9.5ZM9.5 4.5V5H11.5V4.5H9.5ZM9.5 5.5H10.5V3.5H9.5V5.5ZM10.5 5V4.5H8.5V5H10.5ZM10.5 9.5V5H8.5V9.5H10.5ZM5 10.5H9.5V8.5H5V10.5ZM4.5 10.5H5V8.5H4.5V10.5ZM5.5 10.5V9.5H3.5V10.5H5.5ZM5 9.5H4.5V11.5H5V9.5ZM9.5 9.5H5V11.5H9.5V9.5ZM10.5 15V10.5H8.5V15H10.5ZM10.5 15.5V15H8.5V15.5H10.5ZM10.5 14.5H9.5V16.5H10.5V14.5ZM9.5 15V15.5H11.5V15H9.5ZM9.5 10.5V15H11.5V10.5H9.5ZM15 9.5H10.5V11.5H15V9.5ZM15.5 9.5H15V11.5H15.5V9.5ZM14.5 9.5V10.5H16.5V9.5H14.5ZM15 10.5H15.5V8.5H15V10.5ZM10.5 10.5H15V8.5H10.5V10.5ZM9.5 5V9.5H11.5V5H9.5Z" fill="white" mask="url(#path-2-inside-1_25_110)"/>
</svg>
