<svg width="23" height="20" viewBox="0 0 23 20" fill="none" xmlns="http://www.w3.org/2000/svg">
<path fill-rule="evenodd" clip-rule="evenodd" d="M4.00202 6.93512C4.00202 3.64831 6.61591 1 9.82233 1C13.0263 1 15.6404 3.64832 15.6426 6.93298V13.021V13.166L15.7202 13.2885L17.1827 15.5974H2.46561L3.92471 13.2881L4.00202 13.1657V13.021V6.93512ZM9.82233 0C6.04673 0 3.00202 3.11308 3.00202 6.93512V12.8763L1.13555 15.8303L0.650879 16.5974H1.55824H7.38154C7.44482 17.9033 8.50621 18.9554 9.82476 18.9554C11.1433 18.9554 12.2047 17.9033 12.268 16.5974H18.0913H18.9999L18.5137 15.8298L16.6426 12.876V6.93264V6.9323C16.64 3.11306 13.5956 0 9.82233 0ZM11.2661 16.5974H8.38347C8.44486 17.3653 9.07386 17.9554 9.82476 17.9554C10.5757 17.9554 11.2047 17.3653 11.2661 16.5974Z" fill="#191809"/>
<path d="M21 4C22.1046 4 23 3.10457 23 2C23 0.895431 22.1046 0 21 0C19.8954 0 19 0.895431 19 2C19 3.10457 19.8954 4 21 4Z" fill="#FF4A4E"/>
</svg>
