<svg width="21" height="20" viewBox="0 0 21 20" fill="none" xmlns="http://www.w3.org/2000/svg">
<path fill-rule="evenodd" clip-rule="evenodd" d="M2.96921 15.1496L3.32543 15.6032L3.11124 16.1387L2.87471 16.73L3.46596 16.4935L4.00148 16.2793L4.45506 16.6356C5.94243 17.8039 7.81596 18.5 9.85488 18.5001V19.5001C7.58408 19.5001 5.4946 18.7237 3.83735 17.422L2.36184 18.0122L1.07965 18.5251L1.59253 17.2429L2.18276 15.7673C0.881195 14.1101 0.10498 12.0207 0.10498 9.74996C0.10498 4.36511 4.47027 -0.000183105 9.85513 -0.000183105C15.24 -0.000183105 19.6053 4.36511 19.6053 9.74996C19.6053 9.7735 19.6052 9.79701 19.605 9.82051V9.74997L18.6053 9.74996C18.6053 4.91739 14.6877 0.999817 9.85513 0.999817C5.02255 0.999817 1.10498 4.91739 1.10498 9.74996C1.10498 11.7888 1.80106 13.6623 2.96921 15.1496Z" fill="#1A1B1F"/>
<path fill-rule="evenodd" clip-rule="evenodd" d="M17.1794 13.6501C17.1794 13.3739 16.9555 13.1501 16.6794 13.1501C16.4032 13.1501 16.1794 13.3739 16.1794 13.6501V16.0751H13.7544C13.4783 16.0751 13.2544 16.299 13.2544 16.5751C13.2544 16.8513 13.4783 17.0751 13.7544 17.0751H16.1794V19.5002C16.1794 19.7763 16.4032 20.0002 16.6794 20.0002C16.9555 20.0002 17.1794 19.7763 17.1794 19.5002V17.0751H19.6045C19.8806 17.0751 20.1045 16.8513 20.1045 16.5751C20.1045 16.299 19.8806 16.0751 19.6045 16.0751H17.1794V13.6501Z" fill="#1A1B1F"/>
</svg>
