<svg width="22" height="20" viewBox="0 0 22 20" fill="none" xmlns="http://www.w3.org/2000/svg">
<path fill-rule="evenodd" clip-rule="evenodd" d="M5.17682 7.4574C5.17682 4.17059 7.79071 1.52228 10.9971 1.52228C14.2011 1.52228 16.8152 4.1706 16.8174 7.45526V13.5433V13.6883L16.895 13.8108L18.3575 16.1196H3.64041L5.09952 13.8103L5.17682 13.688V13.5433V7.4574ZM10.9971 0.522278C7.22153 0.522278 4.17682 3.63535 4.17682 7.4574V13.3985L2.31035 16.3526L1.82568 17.1196H2.73305H8.55634C8.61962 18.4256 9.68101 19.4777 10.9996 19.4777C12.3181 19.4777 13.3795 18.4256 13.4428 17.1196H19.2661H20.1747L19.6885 16.3521L17.8174 13.3982V7.45492V7.45458C17.8148 3.63534 14.7704 0.522278 10.9971 0.522278ZM12.4409 17.1196H9.55827C9.61966 17.8875 10.2487 18.4777 10.9996 18.4777C11.7505 18.4777 12.3795 17.8875 12.4409 17.1196Z" fill="#191809"/>
</svg>
