<svg width="21" height="20" viewBox="0 0 21 20" fill="none" xmlns="http://www.w3.org/2000/svg">
<g clip-path="url(#clip0_33_1270)">
<path d="M12.1806 0.999001L12.6102 2.81718C12.6801 3.13686 12.9099 3.3966 13.2096 3.51648C13.809 3.75624 14.3884 4.08591 14.9079 4.48551C15.0877 4.62537 15.2975 4.6953 15.5173 4.6953C15.6172 4.6953 15.7071 4.68531 15.807 4.65534L17.6352 4.10589L19.2635 6.88312L17.8849 8.15185C17.6452 8.37163 17.5253 8.7013 17.5752 9.03097C17.6252 9.4006 17.6551 9.71029 17.6551 10C17.6551 10.2897 17.6352 10.5894 17.5752 10.969C17.5253 11.2987 17.6452 11.6184 17.8849 11.8482L19.2635 13.1169L17.6352 15.8941L15.807 15.3447C15.7171 15.3147 15.6172 15.3047 15.5173 15.3047C15.2975 15.3047 15.0877 15.3746 14.9079 15.5145C14.3784 15.9141 13.809 16.2438 13.2096 16.4835C12.9099 16.6034 12.6801 16.8631 12.6102 17.1828L12.1806 19.001H8.90389L8.47432 17.1828C8.40439 16.8631 8.17462 16.6034 7.87492 16.4835C7.27552 16.2438 6.6961 15.9141 6.17662 15.5145C5.9968 15.3746 5.78701 15.3047 5.56723 15.3047C5.46733 15.3047 5.37742 15.3147 5.27752 15.3447L3.44935 15.8941L1.82098 13.1169L3.1996 11.8482C3.43936 11.6284 3.55924 11.2987 3.50929 10.969C3.45934 10.5994 3.42937 10.2897 3.42937 10C3.42937 9.71029 3.44935 9.41059 3.50929 9.03097C3.55924 8.7013 3.43936 8.38162 3.1996 8.15185L1.82098 6.88312L3.44935 4.10589L5.27752 4.65534C5.36743 4.68531 5.46733 4.6953 5.56723 4.6953C5.78701 4.6953 5.9968 4.62537 6.17662 4.48551C6.70609 4.08591 7.27552 3.75624 7.87492 3.51648C8.17462 3.3966 8.40439 3.13686 8.47432 2.81718L8.90389 0.999001H12.1806ZM12.9698 0H8.10469L7.4953 2.58741C6.796 2.86713 6.14665 3.24675 5.55724 3.6963L2.97982 2.91708L0.552246 7.07293L2.52028 8.89111C2.47033 9.25075 2.43037 9.62038 2.43037 10C2.43037 10.3796 2.47033 10.7393 2.52028 11.1089L0.552246 12.9271L2.97982 17.0829L5.55724 16.3037C6.14665 16.7532 6.796 17.1329 7.4953 17.4126L8.10469 20H12.9698L13.5792 17.4126C14.2785 17.1329 14.9279 16.7532 15.5173 16.3037L18.0947 17.0829L20.5223 12.9271L18.5542 11.1089C18.6042 10.7493 18.6442 10.3796 18.6442 10C18.6442 9.62038 18.6042 9.26074 18.5542 8.89111L20.5223 7.07293L18.0947 2.91708L15.5173 3.6963C14.9279 3.24675 14.2785 2.86713 13.5792 2.58741L12.9698 0Z" fill="#1A1B1F"/>
<path d="M10.5522 8C11.6522 8 12.5522 8.9 12.5522 10C12.5522 11.1 11.6522 12 10.5522 12C9.45225 12 8.55225 11.1 8.55225 10C8.55225 8.9 9.45225 8 10.5522 8ZM10.5522 7C8.89225 7 7.55225 8.34 7.55225 10C7.55225 11.66 8.89225 13 10.5522 13C12.2122 13 13.5522 11.66 13.5522 10C13.5522 8.34 12.2122 7 10.5522 7Z" fill="#1A1B1F"/>
</g>
<defs>
<clipPath id="clip0_33_1270">
<rect width="20" height="20" fill="white" transform="translate(0.552246)"/>
</clipPath>
</defs>
</svg>
