<svg width="20" height="20" viewBox="0 0 20 20" fill="none" xmlns="http://www.w3.org/2000/svg">
<path fill-rule="evenodd" clip-rule="evenodd" d="M4.85453 4.14645C4.65927 3.95118 4.34269 3.95118 4.14742 4.14645C3.95216 4.34171 3.95216 4.65829 4.14742 4.85355L9.29387 10L4.14742 15.1464C3.95216 15.3417 3.95216 15.6583 4.14742 15.8536C4.34269 16.0488 4.65927 16.0488 4.85453 15.8536L10.001 10.7071L15.1474 15.8536C15.3427 16.0488 15.6593 16.0488 15.8545 15.8536C16.0498 15.6583 16.0498 15.3417 15.8545 15.1464L10.7081 10L15.8545 4.85355C16.0498 4.65829 16.0498 4.34171 15.8545 4.14645C15.6593 3.95118 15.3427 3.95118 15.1474 4.14645L10.001 9.29289L4.85453 4.14645Z" fill="#9BA1AA"/>
</svg>
