<svg width="20" height="20" viewBox="0 0 20 20" fill="none" xmlns="http://www.w3.org/2000/svg">
<path fill-rule="evenodd" clip-rule="evenodd" d="M9.96291 1.45133C10.1582 1.25607 10.1582 0.939487 9.96291 0.744225C9.76765 0.548963 9.45107 0.548963 9.25581 0.744225L0.353553 9.64648L0 10L0.349566 10.3496C0.352211 10.3523 0.354885 10.355 0.357589 10.3576L9.25581 19.2558C9.45107 19.4511 9.76765 19.4511 9.96291 19.2558C10.1582 19.0606 10.1582 18.744 9.96291 18.5487L1.91426 10.5001H19.5008C19.7769 10.5001 20.0008 10.2762 20.0008 10.0001C20.0008 9.72394 19.7769 9.50008 19.5008 9.50008H1.91417L9.96291 1.45133Z" fill="#1A1B1F"/>
</svg>
