<svg width="20" height="20" viewBox="0 0 20 20" fill="none" xmlns="http://www.w3.org/2000/svg">
<path fill-rule="evenodd" clip-rule="evenodd" d="M0.85453 1.64645C0.659268 1.45118 0.342685 1.45118 0.147423 1.64645C-0.047839 1.84171 -0.047839 2.15829 0.147423 2.35355L7.79387 10L0.147423 17.6464C-0.047839 17.8417 -0.047839 18.1583 0.147423 18.3536C0.342685 18.5488 0.659268 18.5488 0.85453 18.3536L8.50098 10.7071L16.1474 18.3536C16.3427 18.5488 16.6593 18.5488 16.8545 18.3536C17.0498 18.1583 17.0498 17.8417 16.8545 17.6464L9.20808 10L16.8545 2.35355C17.0498 2.15829 17.0498 1.84171 16.8545 1.64645C16.6593 1.45118 16.3427 1.45118 16.1474 1.64645L8.50098 9.29289L0.85453 1.64645Z" fill="#1A1B1F"/>
</svg>
