<svg width="60" height="60" viewBox="0 0 60 60" fill="none" xmlns="http://www.w3.org/2000/svg">
<rect x="5" y="5" width="50" height="50" rx="25" fill="#FFF6D5"/>
<g clip-path="url(#clip0_87_2013)">
<path d="M30.9423 48.0811L30.9697 48.072C31.2259 47.9713 31.4729 47.8341 31.7062 47.6603L38.2516 44.0056C38.645 43.8867 39.0292 43.6992 39.3768 43.4202C45.721 38.3018 47.9166 29.3092 44.175 21.6843C40.4289 14.064 31.9715 10.2995 24.0446 12.184C23.5552 12.303 23.1253 12.5225 22.7639 12.8153L16.191 16.4379C15.8205 16.5614 15.4866 16.7489 15.203 16.9822H15.1984V16.9868C14.0687 17.9107 13.6433 19.5437 14.3339 20.957L26.8531 46.4665C27.617 48.0217 29.4237 48.6666 30.9423 48.0811Z" fill="#FEDA56"/>
<path d="M38.2468 44.0012C38.6402 43.8868 39.0244 43.6993 39.372 43.4203C39.6876 43.1641 39.9941 42.8988 40.2868 42.6244C39.0198 43.251 37.4875 43.7954 36.4812 43.3059C34.583 42.3774 33.7231 39.9349 33.7185 39.912C33.7139 39.8937 33.7048 39.8754 33.6956 39.8571C33.5996 39.6558 24.2411 19.8685 22.5807 16.6484C21.9129 15.3494 21.7894 14.183 22.2239 13.2682C22.2605 13.1904 22.3017 13.1173 22.3429 13.0486L21.0255 13.7759C21.0255 13.7759 21.0255 13.7851 21.0255 13.7896C20.8838 14.6175 20.9798 15.7245 21.6934 17.1058C23.3171 20.2619 32.4058 39.4683 32.7808 40.2642C32.8952 40.5844 33.8603 43.1413 36.0421 44.2024C36.4584 44.4037 36.9112 44.4906 37.3823 44.4906L38.2514 44.0058L38.2468 44.0012Z" fill="#1A1506"/>
<path d="M32.1908 20.2665C32.049 19.9417 31.6739 19.7908 31.3492 19.9326C31.0244 20.0743 30.8735 20.4494 31.0153 20.7742C31.157 21.0989 31.5321 21.2499 31.8569 21.1081C32.1816 20.9663 32.3326 20.5912 32.1908 20.2665Z" fill="#170C35"/>
<path d="M37.4741 20.9526C37.6936 20.6736 38.0962 20.6278 38.3752 20.8474C38.6542 21.0669 38.6999 21.4694 38.4804 21.7485C38.2608 22.0275 37.8583 22.0732 37.5793 21.8537C37.3003 21.6341 37.2545 21.2316 37.4741 20.9526Z" fill="#170C35"/>
<path d="M37.0397 23.5552C36.9436 24.3053 35.7224 24.7627 34.3136 24.5798C32.9048 24.3968 31.8436 23.6421 31.9396 22.892C32.0357 22.1418 33.257 21.6844 34.6658 21.8674C36.0746 22.0503 37.1357 22.805 37.0397 23.5552Z" fill="#170C35"/>
<path d="M30.6129 21.3413C30.5168 22.0915 29.8307 22.6175 29.0806 22.5215C28.3304 22.4254 27.8044 21.7393 27.9005 20.9891C27.9965 20.239 28.6826 19.713 29.4328 19.809C30.1829 19.9051 30.7089 20.5912 30.6129 21.3413Z" fill="#FD5E5E"/>
<path d="M38.7227 22.398C38.6267 23.1481 39.1527 23.8342 39.9028 23.9303C40.653 24.0263 41.3391 23.5003 41.4351 22.7502C41.5312 22 41.0052 21.3139 40.255 21.2179C39.5049 21.1218 38.8188 21.6478 38.7227 22.398Z" fill="#FD5E5E"/>
</g>
<defs>
<clipPath id="clip0_87_2013">
<rect width="32" height="36.5923" fill="white" transform="translate(14 11.7039)"/>
</clipPath>
</defs>
</svg>
