<svg width="60" height="60" viewBox="0 0 60 60" fill="none" xmlns="http://www.w3.org/2000/svg">
<rect x="5" y="5" width="50" height="50" rx="25" fill="#E9E1F9"/>
<g clip-path="url(#clip0_87_2015)">
<path d="M31.8965 11.1023L13.7172 31.0235C12.978 31.8335 12.8168 32.9636 13.2032 33.9157L13.2004 33.9169L15.2192 40.0474C15.3124 40.644 15.6006 41.2141 16.0814 41.6528L24.2139 49.0742C25.3368 50.0987 27.0781 50.0195 28.1032 48.8961L46.2826 28.9749C46.9443 28.2503 47.1426 27.2684 46.9005 26.3876L46.9021 26.3865L46.883 26.3287C46.8656 26.2697 46.8465 26.2118 46.8252 26.154L44.7907 20.0139H44.7901C44.7075 19.3943 44.416 18.7989 43.9183 18.3445L35.7853 10.9248C34.6624 9.89965 32.9211 9.97941 31.8959 11.1028L31.8965 11.1023Z" fill="#A887E9"/>
<path d="M44.7905 20.0156C44.7366 19.6111 44.5922 19.2185 44.3613 18.8674C44.6619 20.379 43.9912 21.9192 42.3487 23.4617C42.2403 23.5634 42.1847 23.6156 42.1414 23.6763C41.6595 24.2537 27.8233 39.5357 26.3854 41.0259C25.5939 41.8455 24.0773 43.0739 22.8095 42.0893C21.5535 41.1136 17.7204 37.9281 16.3104 36.4468C15.9015 36.0177 15.4595 35.6076 15.032 35.2111C14.1995 34.4393 13.4053 33.7012 13.002 32.9592C13.0121 33.2855 13.0789 33.6102 13.203 33.9163L13.2002 33.9174L13.6681 35.3386C13.8844 35.5459 14.108 35.7537 14.3343 35.9638C14.75 36.3497 15.1803 36.7485 15.5667 37.1546C17.0339 38.6959 20.8671 41.8809 22.1798 42.9004C23.5684 43.9789 25.3703 43.5553 27.1235 41.7388C27.2656 41.5916 42.7678 24.6239 42.9969 24.243C42.9739 24.2818 42.9526 24.3048 42.9497 24.3071C42.9694 24.2863 43.0042 24.2543 43.0514 24.2105C43.7631 23.542 44.2872 22.8927 44.6624 22.2692C44.8854 21.8979 45.0534 21.5356 45.1786 21.1839L44.7916 20.0161H44.791L44.7905 20.0156Z" fill="#1A1506"/>
<path d="M22.6883 29.6703C22.4332 29.4411 22.0406 29.4619 21.8114 29.7174C21.5822 29.9725 21.603 30.3651 21.8586 30.5943C22.1136 30.8235 22.5063 30.8027 22.7354 30.5471C22.9646 30.2921 22.9438 29.8994 22.6883 29.6703Z" fill="#170C35"/>
<path d="M32.2349 20.0858C32.0046 19.8313 32.0243 19.4387 32.2782 19.2084C32.5326 18.9781 32.9253 18.9977 33.1556 19.2516C33.3859 19.5061 33.3662 19.8987 33.1123 20.129C32.8579 20.3593 32.4652 20.3397 32.2349 20.0858Z" fill="#170C35"/>
<path d="M33.6993 23.1943C35.0238 24.5132 34.3295 27.3571 32.1489 29.5461C29.9684 31.7351 27.1272 32.4406 25.8032 31.1217C24.4787 29.8028 25.173 26.9589 27.3536 24.7699C29.5341 22.5809 32.3753 21.8754 33.6993 23.1943Z" fill="#5026AB"/>
<path d="M27.4289 29.8135C27.3464 29.8135 27.2632 29.7821 27.2003 29.7191C27.0734 29.5928 27.0734 29.3877 27.1992 29.2608L31.8435 24.598C31.9698 24.471 32.1749 24.4705 32.3018 24.5974C32.4288 24.7238 32.4288 24.9288 32.3029 25.0558L27.6587 29.7186C27.5952 29.7821 27.5121 29.8141 27.4289 29.8141V29.8135Z" fill="#170C35"/>
<path d="M21.8546 32.6367C22.7562 33.5349 22.759 34.9937 21.8614 35.8952C20.9632 36.7968 19.5044 36.7996 18.6029 35.902C17.7013 35.0038 17.6985 33.545 18.5961 32.6435C19.4943 31.7419 20.9531 31.7391 21.8546 32.6367Z" fill="#FD8FB3"/>
<path d="M35.1985 19.2398C36.1001 20.138 37.5588 20.1352 38.457 19.233C39.3552 18.3315 39.3518 16.8727 38.4503 15.9745C37.5487 15.0764 36.0899 15.0792 35.1918 15.9813C34.2936 16.8828 34.2964 18.3416 35.1985 19.2398Z" fill="#FD8FB3"/>
</g>
<defs>
<clipPath id="clip0_87_2015">
<rect width="34" height="39.5896" fill="white" transform="translate(13 10.2052)"/>
</clipPath>
</defs>
</svg>
