<svg width="60" height="60" viewBox="0 0 60 60" fill="none" xmlns="http://www.w3.org/2000/svg">
<rect x="5" y="5" width="50" height="50" rx="25" fill="#CFDFFB"/>
<g clip-path="url(#clip0_87_2020)">
<path d="M48.7446 31.54L46.5518 21.0818C46.2055 19.4311 45.005 18.0898 43.402 17.5642L33.2486 14.2344C32.5385 14.0017 31.7972 13.9455 31.0825 14.0516C30.8867 14.0806 30.6931 14.1214 30.5024 14.1754L23.5647 15.6518C22.5146 15.7125 21.4963 16.1218 20.6874 16.8461L12.7263 23.9739C11.4695 25.0996 10.9087 26.8098 11.2549 28.4605L13.4477 38.9187C13.794 40.5694 14.9945 41.9107 16.5976 42.4363L26.7509 45.7661C27.4281 45.9881 28.1337 46.0488 28.8171 45.9619V45.9631L28.8301 45.9602C29.0657 45.9296 29.2979 45.8819 29.5261 45.8161L36.7657 44.3181C37.0041 44.2874 37.2403 44.2386 37.4713 44.1722L37.477 44.171V44.1705C38.1462 43.9763 38.7752 43.6352 39.3116 43.1544L47.2721 36.026C48.5289 34.901 49.0897 33.1907 48.7434 31.5394L48.7446 31.54Z" fill="#407EEE"/>
<path d="M30.9283 45.5266L32.8832 45.1219C35.5886 42.6038 39.2726 39.2031 40.4822 38.2262C42.7181 36.4194 42.1 33.1186 42.0682 32.9591C42.0489 32.8791 40.1535 24.9162 39.6086 22.3397C39.0046 19.4857 36.6626 18.5439 36.5632 18.5048C36.5508 18.5002 36.5377 18.4957 36.5252 18.4917C36.4446 18.4673 28.4273 16.0412 26.0052 15.2301C25.9433 15.2091 25.8797 15.1909 25.8167 15.1722L23.5649 15.6513C22.9695 15.6859 22.3859 15.8357 21.8433 16.0883C22.999 15.9084 24.4879 15.8159 25.6754 16.2132C28.0458 17.0068 35.7135 19.3296 36.2005 19.4771C36.4009 19.5617 38.1271 20.3507 38.5937 22.5543C39.142 25.1433 41.0402 33.1186 41.055 33.1788C41.0606 33.2066 41.5857 36.0011 39.8306 37.419C38.3774 38.5929 33.6007 43.029 30.9283 45.526V45.5266Z" fill="#1A1506"/>
<path d="M21.8945 25.93C21.5823 26.0799 21.4506 26.4551 21.6005 26.7673C21.7503 27.0795 22.1255 27.2112 22.4377 27.0613C22.7499 26.9115 22.8816 26.5363 22.7318 26.2241C22.5819 25.9119 22.2067 25.7802 21.8945 25.93Z" fill="#170C35"/>
<path d="M32.9226 30.5137C33.0367 30.8412 32.8635 31.1989 32.536 31.3129C32.2085 31.427 31.8509 31.2539 31.7368 30.9264C31.6227 30.5989 31.7958 30.2412 32.1233 30.1272C32.4509 30.0131 32.8085 30.1862 32.9226 30.5137Z" fill="#170C35"/>
<path d="M29.4016 31.5179C28.7431 33.1016 26.9261 33.8514 25.3424 33.1936C23.7587 32.5351 23.0088 30.7181 23.6667 29.1344C24.3252 27.5507 26.1422 26.8008 27.7259 27.4587C29.3096 28.1172 30.0595 29.9342 29.4016 31.5179Z" fill="#5026AB"/>
<path d="M26.4567 35.0054C25.9311 35.0054 25.3447 34.9146 24.7322 34.6603C22.632 33.7873 22.108 31.7693 22.0865 31.6836C22.0427 31.5082 22.1495 31.3305 22.3249 31.2868C22.5003 31.242 22.6774 31.3498 22.7216 31.5247C22.729 31.5531 23.2007 33.3144 24.9831 34.0552C26.7819 34.8028 28.356 33.8826 28.3719 33.8736C28.5263 33.7805 28.7278 33.831 28.8209 33.9865C28.9134 34.1415 28.8629 34.343 28.7079 34.4355C28.6546 34.4673 27.7344 35.0049 26.4561 35.0049L26.4567 35.0054Z" fill="#170C35"/>
<path d="M20.5381 28.7796C20.0233 30.0187 18.6008 30.6057 17.3616 30.0908C16.1225 29.576 15.5355 28.1535 16.0504 26.9143C16.5652 25.6752 17.9877 25.0882 19.2269 25.6031C20.466 26.1179 21.053 27.5404 20.5381 28.7796Z" fill="#FD8FB3"/>
<path d="M31.86 33.4858C31.3451 34.725 31.9321 36.1475 33.1712 36.6623C34.4104 37.1772 35.8329 36.5903 36.3477 35.3511C36.8626 34.1119 36.2756 32.69 35.0365 32.1746C33.7973 31.6598 32.3754 32.2467 31.86 33.4858Z" fill="#FD8FB3"/>
</g>
<defs>
<clipPath id="clip0_87_2020">
<rect width="37.6911" height="32" fill="white" transform="translate(11.1543 14)"/>
</clipPath>
</defs>
</svg>
