<svg width="60" height="60" viewBox="0 0 60 60" fill="none" xmlns="http://www.w3.org/2000/svg">
<rect x="5" y="5" width="50" height="50" rx="25" fill="#FCD4C6"/>
<g clip-path="url(#clip0_87_2026)">
<path d="M45.7531 23.489C45.5621 23.3028 45.3508 23.1358 45.1239 22.9885L39.8342 18.7812C39.7952 18.7489 39.7551 18.7171 39.715 18.686C39.4007 18.443 39.0487 18.2406 38.6638 18.0933L26.647 13.5154C24.9815 12.8809 23.0964 13.3909 21.9781 14.7792L13.9106 24.7917C12.7923 26.18 12.6947 28.1298 13.6693 29.6228L20.6994 40.3896C20.8909 40.6836 21.1166 40.9446 21.3668 41.1739C21.5147 41.3098 21.671 41.4343 21.8356 41.5462L27.2409 45.8356C28.2478 46.6522 29.6067 46.9635 30.9064 46.6121L43.3189 43.253C45.0395 42.7872 46.2649 41.2667 46.3535 39.4863L46.9947 26.6433C47.0551 25.4358 46.5822 24.2966 45.7531 23.4896V23.489Z" fill="#F3521D"/>
<path d="M39.7152 18.6866C39.4009 18.4436 39.0489 18.2412 38.664 18.094L38.382 17.9868C40.0864 19.4338 41.0011 20.6251 40.8365 22.7168C40.706 24.3685 40.6024 26.4644 40.4929 28.6836C40.418 30.1892 40.3414 31.7469 40.2528 33.2268C40.0487 36.6295 39.5284 37.2186 37.393 38.2615C35.3139 39.2768 30.9635 40.4166 28.0851 41.1709L27.4613 41.335C27.1446 41.4182 26.8333 41.508 26.5262 41.5972C25.0134 42.0348 23.703 42.4113 22.2524 41.8761L23.9502 43.2231C24.9452 43.189 25.8941 42.9184 26.8298 42.6478C27.1291 42.5616 27.4314 42.4736 27.7397 42.3928L28.3623 42.2293C31.2825 41.4637 35.6964 40.3071 37.8725 39.2445C40.3582 38.031 41.1155 37.1025 41.3441 33.2926C41.4333 31.8068 41.5106 30.2467 41.5854 28.7375C41.695 26.5266 41.7979 24.4379 41.9272 22.803C42.0092 21.7631 41.868 20.9065 41.5441 20.1408L39.8355 18.7818C39.7966 18.7495 39.7565 18.7178 39.7164 18.6866H39.7152Z" fill="#1A1506"/>
<path d="M23.7673 24.827C23.4147 24.7312 23.0507 24.9396 22.9549 25.2922C22.8591 25.6448 23.0675 26.0087 23.4201 26.1045C23.7727 26.2003 24.1367 25.992 24.2325 25.6394C24.3282 25.2868 24.1199 24.9228 23.7673 24.827Z" fill="#170C35"/>
<path d="M29.2277 23.495C29.4965 23.2471 29.9155 23.2645 30.1628 23.5339C30.4106 23.8027 30.3932 24.2217 30.1239 24.469C29.8551 24.7168 29.436 24.6995 29.1888 24.4301C28.9409 24.1613 28.9583 23.7422 29.2277 23.495Z" fill="#170C35"/>
<path d="M27.5605 29.8467C26.7302 29.8467 25.9298 29.0727 25.6538 27.94C25.3425 26.6637 25.8304 25.4855 26.7655 25.2574C27.7012 25.0299 28.6764 25.8507 28.9877 27.1264C29.299 28.4028 28.8111 29.5809 27.876 29.809C27.7712 29.8347 27.6659 29.8467 27.5611 29.8467H27.5605ZM27.0762 25.9112C27.0265 25.9112 26.9774 25.9165 26.9289 25.9285C26.3889 26.0602 26.1124 26.9067 26.3249 27.7766C26.5374 28.6464 27.172 29.2714 27.7126 29.1385C28.2525 29.0068 28.5291 28.1603 28.3172 27.2905C28.1238 26.499 27.5803 25.9112 27.0768 25.9112H27.0762Z" fill="#170C35"/>
<path d="M23.4914 27.8376C23.7033 28.7063 23.1711 29.5827 22.3019 29.7946C21.4332 30.0065 20.5568 29.4743 20.3449 28.6051C20.1329 27.7364 20.6651 26.86 21.5344 26.6481C22.403 26.4362 23.2795 26.9684 23.4914 27.837V27.8376Z" fill="#FD8FB3"/>
<path d="M30.8591 26.0398C31.071 26.9085 31.9474 27.4413 32.8161 27.2288C33.6847 27.0169 34.2175 26.1404 34.005 25.2718C33.7931 24.4031 32.9167 23.8703 32.048 24.0822C31.1794 24.2942 30.6466 25.1706 30.8585 26.0393L30.8591 26.0398Z" fill="#FD8FB3"/>
</g>
<defs>
<clipPath id="clip0_87_2026">
<rect width="34" height="33.5091" fill="white" transform="translate(13 13.2454)"/>
</clipPath>
</defs>
</svg>
