<svg width="60" height="60" viewBox="0 0 60 60" fill="none" xmlns="http://www.w3.org/2000/svg">
<rect x="5" y="5" width="50" height="50" rx="25" fill="#FEE3EC"/>
<g clip-path="url(#clip0_87_2017)">
<path d="M47.889 27.4921C47.3326 24.1205 44.8059 21.5675 41.681 20.8134C40.3636 20.4955 39.2319 19.684 38.5072 18.5391C36.9892 16.1394 34.293 14.6342 31.3612 14.6979H26.37C25.8527 14.6842 25.3262 14.7186 24.7963 14.806C21.4248 15.3624 18.8717 17.889 18.1176 21.014C17.7998 22.3313 16.9882 23.463 15.8433 24.1878C13.127 25.9069 11.555 29.1365 12.1114 32.508C12.6677 35.8795 15.1944 38.4326 18.3193 39.1867C19.6367 39.5045 20.7684 40.3161 21.4932 41.461C22.8387 43.5882 25.1113 45.0136 27.6529 45.2648L27.6552 45.305L28.4115 45.3033C28.4753 45.3033 28.5397 45.3038 28.6035 45.3033L33.4269 45.2929C34.0097 45.3228 34.604 45.2929 35.2035 45.1935C38.575 44.6371 41.1281 42.1105 41.8822 38.9855C42.2 37.6682 43.0116 36.5365 44.1565 35.8117C46.8734 34.0932 48.4453 30.8636 47.889 27.4921Z" fill="#FD8FB3"/>
<path d="M29.8789 45.2998L32.3877 45.2946C29.9484 44.525 28.5506 42.9623 27.2758 41.5317C26.6263 40.8029 26.0125 40.1138 25.3084 39.581C24.4888 38.9608 23.5341 38.5792 22.611 38.2102C20.4459 37.3446 18.4009 36.5267 17.6658 32.7591C16.7732 28.1841 19.1085 26.2477 21.169 24.5395C21.5368 24.2349 21.884 23.947 22.1989 23.6532C23.2398 22.6842 23.6445 21.4588 24.0353 20.2737C24.4773 18.9333 24.8951 17.6677 26.1688 16.601C27.6017 15.4003 29.453 14.9037 30.7255 14.6979H27.1953C26.6091 14.9882 26.0297 15.3474 25.4946 15.7957C23.9922 17.0544 23.4852 18.5896 23.0387 19.9443C22.6731 21.0525 22.3277 22.0991 21.4839 22.8848C21.1908 23.1572 20.8552 23.436 20.4994 23.7308C18.4417 25.4367 15.6243 27.7731 16.6358 32.9603C17.4807 37.2894 19.9993 38.2969 22.2219 39.1855C23.1197 39.5448 23.968 39.8839 24.675 40.419C25.2969 40.8897 25.8774 41.5409 26.4918 42.2306C27.4068 43.2571 28.431 44.4072 29.8789 45.3004V45.2998Z" fill="#1A1506"/>
<path d="M29.2441 28.0863C29.0229 27.8139 28.6228 27.772 28.3504 27.9932C28.078 28.2145 28.036 28.6146 28.2573 28.887C28.4786 29.1594 28.8786 29.2014 29.151 28.9801C29.4235 28.7588 29.4654 28.3588 29.2441 28.0863Z" fill="#170C35"/>
<path d="M36.6854 27.0133C36.8204 26.6892 37.1923 26.5363 37.5165 26.6713C37.8406 26.8064 37.9935 27.1783 37.8585 27.5024C37.7234 27.8266 37.3515 27.9795 37.0274 27.8444C36.7032 27.7093 36.5503 27.3375 36.6854 27.0133Z" fill="#170C35"/>
<path d="M33.7994 33.3414C35.3197 33.1224 36.5146 32.0689 36.9865 30.7119C37.2946 29.8267 36.5393 28.933 35.6117 29.0669L30.8532 29.7526C29.9256 29.8865 29.4537 30.9573 29.9991 31.7189C30.8354 32.8873 32.2786 33.5604 33.7989 33.3414H33.7994Z" fill="#170C35"/>
<path d="M28.5469 30.7504C28.7096 31.8769 27.9273 32.9224 26.8008 33.0845C25.6743 33.2471 24.6288 32.4655 24.4667 31.3384C24.3041 30.2118 25.0863 29.1663 26.2128 29.0043C27.3394 28.8416 28.3848 29.6233 28.5469 30.7504Z" fill="#FD5E5E"/>
<path d="M38.1072 29.3721C38.2699 30.4986 39.3148 31.2803 40.4413 31.1182C41.5678 30.9555 42.3501 29.9106 42.1874 28.7841C42.0248 27.6576 40.9799 26.8759 39.8533 27.038C38.7268 27.2007 37.9451 28.2456 38.1072 29.3721Z" fill="#FD5E5E"/>
</g>
<defs>
<clipPath id="clip0_87_2017">
<rect width="36" height="30.6099" fill="white" transform="translate(12 14.6951)"/>
</clipPath>
</defs>
</svg>
