<svg width="60" height="60" viewBox="0 0 60 60" fill="none" xmlns="http://www.w3.org/2000/svg">
<rect x="5" y="5" width="50" height="50" rx="25" fill="#C9EAE4"/>
<g clip-path="url(#clip0_87_2027)">
<path d="M46 26.9786C46 18.8571 39.4163 12.2734 31.2948 12.2734C25.4925 12.2734 20.4768 15.635 18.0844 20.516H18.0832C18.0832 20.516 18.0802 20.5219 18.0761 20.5325C17.8499 20.9956 17.6468 21.4721 17.469 21.9611C16.9021 23.2964 16.0835 25.2246 15.6483 26.2593C14.5971 28.2844 14 30.5823 14 33.0207C14 41.1422 20.5837 47.7259 28.7052 47.7259C34.4508 47.7259 39.424 44.4282 41.8436 39.6245L41.8465 39.6257L41.8672 39.5778C42.1123 39.0871 42.3332 38.5827 42.5227 38.063L44.7055 33.0207L44.7013 33.019C45.5335 31.1758 46 29.1324 46 26.9786Z" fill="#26AB93"/>
<path d="M43.1267 36.6675L44.7047 33.0207L44.7006 33.019C44.7219 32.9723 44.7396 32.9245 44.7603 32.8772C41.1956 38.1026 36.8945 40.8558 31.9402 41.069C25.5975 41.3418 21.4836 39.0132 18.1888 33.2829C16.159 29.7525 16.6958 25.1248 17.3372 22.2694C16.7986 23.5374 16.0982 25.1886 15.6883 26.1619C15.5661 28.6499 15.8791 31.4309 17.2533 33.8204C20.5558 39.5636 24.8197 42.1686 30.9905 42.1686C31.3171 42.1686 31.649 42.1616 31.9862 42.1468C36.1663 41.9673 39.894 40.1276 43.1262 36.6669L43.1267 36.6675Z" fill="#1A1506"/>
<path d="M28.4103 27.2444C28.4186 27.6052 28.1327 27.904 27.7725 27.9117C27.4123 27.92 27.1128 27.6342 27.1052 27.2739C27.0969 26.9137 27.3827 26.6142 27.743 26.6066C28.1032 26.5983 28.4026 26.8841 28.4103 27.2444Z" fill="#170C35"/>
<path d="M35.7629 27.0779C35.7711 27.4381 36.07 27.7239 36.4302 27.7157C36.7905 27.7074 37.0763 27.4086 37.068 27.0483C37.0598 26.6881 36.7609 26.4022 36.4007 26.4105C36.0404 26.4188 35.7546 26.7176 35.7629 27.0779Z" fill="#170C35"/>
<path d="M33.6848 28.0493C33.7043 28.9204 33.0145 29.6421 32.144 29.6622C31.2729 29.6817 30.5512 28.9919 30.5312 28.1214C30.5117 27.2503 31.2015 26.5286 32.072 26.5085C32.943 26.489 33.6647 27.1788 33.6848 28.0493Z" fill="#FEDA56"/>
<path d="M32.1037 32.0693C30.3521 32.0693 29.4396 30.9508 29.4007 30.9024C29.2831 30.7553 29.3074 30.5409 29.4544 30.4234C29.6015 30.3065 29.8152 30.3301 29.9322 30.4766C29.9658 30.5179 30.7188 31.4168 32.1817 31.3872C33.6551 31.3536 34.3301 30.3945 34.3366 30.385C34.4429 30.2297 34.6555 30.1901 34.8103 30.297C34.9656 30.4033 35.0052 30.6154 34.8989 30.7707C34.8634 30.8221 34.0166 32.0274 32.1976 32.0687C32.1657 32.0693 32.1344 32.0699 32.1037 32.0699V32.0693Z" fill="#170C35"/>
<path d="M26.1399 28.52C25.0627 27.7948 23.6016 28.0794 22.8764 29.1566C22.1512 30.2338 22.4358 31.6949 23.513 32.4201C24.5902 33.1453 26.0513 32.8607 26.7765 31.7835C27.5017 30.7063 27.2171 29.2452 26.1399 28.52Z" fill="#FD8FB3"/>
<path d="M38.0899 28.2489C39.1328 27.4753 40.6057 27.6938 41.3788 28.7367C42.1524 29.7797 41.9339 31.2526 40.891 32.0256C39.848 32.7993 38.3751 32.5807 37.6021 31.5378C36.8284 30.4949 37.0469 29.022 38.0899 28.2489Z" fill="#FD8FB3"/>
</g>
<defs>
<clipPath id="clip0_87_2027">
<rect width="32" height="35.4531" fill="white" transform="translate(14 12.2734)"/>
</clipPath>
</defs>
</svg>
