<svg width="60" height="60" viewBox="0 0 60 60" fill="none" xmlns="http://www.w3.org/2000/svg">
<rect x="5" y="5" width="50" height="50" rx="25" fill="#FEE3EC"/>
<g clip-path="url(#clip0_87_2022)">
<path d="M47.3701 36.8951C47.8315 36.3062 48.0719 35.5437 47.9818 34.742L45.8684 15.9449C45.686 14.3222 44.2229 13.1549 42.6001 13.3374L21.7312 15.6829C21.0295 15.7619 20.4143 16.0806 19.9552 16.5478L13.1999 22.5535C13.0555 22.6605 12.9216 22.7786 12.7999 22.909L12.7911 22.9172L12.7923 22.9184C12.2268 23.5271 11.9187 24.368 12.0187 25.2586L14.132 44.0557C14.3145 45.6784 15.7776 46.8457 17.4004 46.6632L38.2693 44.3171C38.923 44.2434 39.5008 43.9598 39.9482 43.5434L39.9505 43.5452L46.6123 37.574C46.9029 37.3916 47.159 37.1629 47.3684 36.8963L47.3707 36.8945L47.3701 36.8951Z" fill="#FD8FB3"/>
<path d="M47.3513 36.9162C46.7074 37.1706 46.0133 37.377 45.2969 37.4811C43.6987 37.7132 39.4603 38.167 35.3616 38.6056C31.1763 39.0535 26.849 39.5167 25.1882 39.7588C23.8269 39.957 22.8228 39.8155 22.203 39.3401C21.7012 38.9541 21.4047 38.3138 21.296 37.3817C21.2457 36.9513 21.1346 35.9244 20.9878 34.5712C20.4942 30.0158 19.5761 21.5366 19.2644 19.9395C19.0376 18.7764 19.0346 17.9057 19.3048 17.1238L18.0294 18.2577C18.0119 18.8577 18.0861 19.4787 18.2159 20.1436C18.5189 21.6968 19.434 30.1462 19.9252 34.6858C20.072 36.0437 20.1837 37.0729 20.234 37.505C20.3779 38.7389 20.8083 39.6161 21.5515 40.1868C21.8076 40.3833 22.0959 40.54 22.4181 40.657C23.1895 40.9365 24.1561 40.988 25.3414 40.8155C26.9823 40.5763 31.2997 40.1143 35.4744 39.667C39.5831 39.2272 43.8315 38.7723 45.4496 38.5372C45.4847 38.5319 45.5197 38.5255 45.5548 38.5202L46.6109 37.5735C46.894 37.3957 47.1437 37.1735 47.3501 36.9156L47.3513 36.9162Z" fill="#1A1506"/>
<path d="M39.5039 31.6158C39.6875 33.0947 37.8882 34.5356 35.4842 34.8344C33.0807 35.1326 30.9831 34.1759 30.7995 32.697C30.6159 31.2181 32.4152 29.7772 34.8193 29.4784C37.2227 29.1802 39.3203 30.1369 39.5039 31.6158Z" fill="#FD5E5E"/>
<path d="M29.4911 30.1398C29.5349 30.4942 29.2835 30.817 28.9291 30.8608C28.5747 30.9047 28.252 30.6532 28.2081 30.2989C28.1642 29.9445 28.4157 29.6217 28.7701 29.5778C29.1244 29.534 29.4472 29.7854 29.4911 30.1398Z" fill="#170C35"/>
<path d="M40.1466 28.8165C40.1904 29.1708 40.5132 29.4223 40.8676 29.3784C41.222 29.3346 41.4734 29.0118 41.4296 28.6574C41.3857 28.303 41.0623 28.0516 40.7085 28.0954C40.3542 28.1393 40.1027 28.4621 40.1466 28.8165Z" fill="#170C35"/>
<path d="M32.4235 32.8777C32.2557 32.8777 32.1101 32.7525 32.089 32.5818C32.0662 32.397 32.1972 32.2286 32.382 32.2058L37.8496 31.5269C38.0338 31.5011 38.2028 31.635 38.2256 31.8198C38.2485 32.0046 38.1175 32.173 37.9327 32.1958L32.465 32.8748C32.451 32.8765 32.4369 32.8777 32.4229 32.8777H32.4235Z" fill="#170C35"/>
<path d="M27.9183 32.6011C28.0534 33.69 27.2803 34.6818 26.1921 34.8174C25.1032 34.9525 24.1114 34.1795 23.9758 33.0912C23.8407 32.0023 24.6138 31.0105 25.702 30.8749C26.7909 30.7398 27.7833 31.5129 27.9183 32.6011Z" fill="#FD5E5E"/>
<path d="M42.2742 30.8187C42.4093 31.9076 43.4017 32.6807 44.4905 32.545C45.5794 32.4099 46.3525 31.4175 46.2168 30.3287C46.0817 29.2398 45.0893 28.4668 44.0005 28.6024C42.9116 28.7375 42.1386 29.7299 42.2742 30.8187Z" fill="#FD5E5E"/>
</g>
<defs>
<clipPath id="clip0_87_2022">
<rect width="36" height="33.3638" fill="white" transform="translate(12 13.3181)"/>
</clipPath>
</defs>
</svg>
