<svg width="60" height="60" viewBox="0 0 60 60" fill="none" xmlns="http://www.w3.org/2000/svg">
<rect x="5" y="5" width="50" height="50" rx="25" fill="#CFDFFB"/>
<g clip-path="url(#clip0_87_2019)">
<path d="M44.4586 34.67C43.4749 33.5961 43.5484 31.9283 44.6223 30.9447L47.1442 28.6355C48.2181 27.6519 48.2916 25.984 47.3079 24.9102L42.0951 19.2186C42.0188 19.1347 41.9367 19.0595 41.8523 18.9878H41.854L41.8395 18.9774C41.6897 18.8519 41.5296 18.7467 41.3613 18.6594L34.7624 14.2718C34.6571 14.1903 34.5472 14.1163 34.4327 14.0527L34.4206 14.0446V14.0463C33.4577 13.5154 32.2248 13.6259 31.3689 14.4101L28.847 16.7192C27.7731 17.7029 26.1053 17.6294 25.1216 16.5555L22.8125 14.0336C21.8288 12.9597 20.161 12.8863 19.0871 13.8699L13.3961 19.0833C12.3222 20.0669 12.2488 21.7347 13.2324 22.8086L15.5416 25.3306C16.5253 26.4045 16.4518 28.0723 15.3779 29.056L12.856 31.3651C11.7821 32.3488 11.7086 34.0166 12.6923 35.0905L17.9051 40.782C18.2156 41.1209 18.5944 41.3597 19.0015 41.498L25.2841 45.7658C25.3217 45.7935 25.3604 45.8184 25.3992 45.8438L25.4686 45.8913L25.4674 45.8884C26.4453 46.4921 27.7419 46.4054 28.6319 45.5905L31.1538 43.2814C32.2277 42.2977 33.8955 42.3712 34.8792 43.4451L37.1883 45.967C38.172 47.0409 39.8398 47.1144 40.9137 46.1307L46.6053 40.9179C47.6791 39.9342 47.7526 38.2664 46.7689 37.1926L44.4598 34.6706L44.4586 34.67Z" fill="#407EEE"/>
<path d="M38.387 26.586C38.6247 26.3709 38.8843 26.1523 39.1353 25.9412C40.4769 24.8107 41.9978 23.5297 41.6526 21.5265C41.4566 20.3879 39.4239 18.0845 37.3796 16.0119L34.7628 14.2718C34.6576 14.1903 34.5477 14.1163 34.4332 14.0527L34.421 14.0446V14.0463C34.1371 13.8896 33.8289 13.7901 33.5143 13.7462C36.4826 16.5046 40.4018 20.4879 40.6117 21.7052C40.854 23.1111 39.6887 24.093 38.4552 25.1322C38.1973 25.3496 37.9307 25.574 37.6786 25.8019C36.3872 26.9706 35.3029 28.4638 37.0552 30.6775C37.4941 31.232 37.9365 31.6536 38.3268 32.026C39.1573 32.8172 39.6581 33.2942 39.6182 34.4161C39.5759 35.5947 38.9815 36.0533 37.678 37.0584C37.1483 37.4672 36.5474 37.931 35.8512 38.5475L35.7459 38.6406C33.3148 40.7941 32.6971 41.3025 31.5521 41.3025C30.8726 41.3025 30 40.3743 29.1562 39.4768C28.6115 38.8973 28.0476 38.2977 27.4404 37.8223C25.4638 36.2754 23.3866 38.5989 22.1461 39.9874L22.0721 40.0701C21.3412 40.8873 20.4419 41.373 19.6057 41.4037C19.0777 41.4216 18.5613 41.2631 18.064 40.9347C18.3415 41.1914 18.6602 41.3817 19.0008 41.4974L20.2916 42.3746C21.2058 42.1688 22.1149 41.6084 22.8603 40.7751L22.9344 40.6924C24.335 39.1252 25.6836 37.7899 26.7899 38.6556C27.334 39.0812 27.8695 39.6509 28.3871 40.2014C29.4303 41.3111 30.4163 42.3596 31.5527 42.3596C33.1418 42.3596 34.0417 41.5627 36.4468 39.4317L36.5515 39.3386C37.2211 38.7458 37.8069 38.2936 38.3234 37.8952C39.7026 36.8311 40.614 36.1279 40.6735 34.4537C40.7308 32.8576 39.9171 32.0821 39.0555 31.261C38.6726 30.8961 38.2765 30.5184 37.8833 30.0217C36.8296 28.691 36.9476 27.8883 38.387 26.5855V26.586Z" fill="#1A1506"/>
<path d="M23.9486 22.9266C24.0516 22.5889 24.4089 22.3986 24.7467 22.5022C25.0844 22.6051 25.2747 22.9631 25.1711 23.3002C25.0682 23.6379 24.7102 23.8282 24.3731 23.7247C24.0354 23.6217 23.8451 23.2643 23.9486 22.9266Z" fill="#170C35"/>
<path d="M31.2249 29.8216C31.5568 29.7002 31.7274 29.3335 31.606 29.0016C31.4845 28.6702 31.1179 28.4991 30.786 28.6205C30.454 28.7419 30.2834 29.1086 30.4049 29.4405C30.5263 29.7725 30.8929 29.9431 31.2249 29.8216Z" fill="#170C35"/>
<path d="M28.227 31.4865C27.3786 32.3817 25.3974 31.8809 23.8013 30.3687C22.2052 28.8565 21.5992 26.9047 22.4475 26.0095C23.2959 25.1143 25.2771 25.6151 26.8732 27.1274C28.4693 28.6396 29.0753 30.5913 28.227 31.4865Z" fill="#FEDA56"/>
<path d="M27.1954 30.5647C26.7443 30.5647 25.7277 30.4381 24.6787 29.4434C23.289 28.1266 23.4955 26.8509 23.5047 26.7971C23.5365 26.6156 23.7106 26.4947 23.891 26.5265C24.0714 26.5583 24.1923 26.7295 24.1622 26.9099C24.1547 26.9585 24.0281 27.908 25.1378 28.9594C26.2805 30.0425 27.322 29.8928 27.3325 29.891C27.5135 29.8638 27.6852 29.9864 27.7141 30.1686C27.743 30.3508 27.6187 30.5214 27.4365 30.5503C27.4232 30.5526 27.3377 30.5647 27.1954 30.5647Z" fill="#170C35"/>
<path d="M22.307 23.783C21.6293 24.4978 20.5005 24.5285 19.7857 23.8507C19.0709 23.1729 19.0403 22.0441 19.718 21.3293C20.3958 20.6146 21.5246 20.5839 22.2394 21.2617C22.9542 21.9394 22.9848 23.0683 22.307 23.783Z" fill="#FD8FB3"/>
<path d="M30.4573 31.5073C29.7795 32.2221 29.8102 33.3509 30.5249 34.0287C31.2397 34.7064 32.3685 34.6758 33.0463 33.961C33.7241 33.2462 33.6934 32.1174 32.9786 31.4396C32.2639 30.7619 31.135 30.7925 30.4573 31.5073Z" fill="#FD8FB3"/>
</g>
<defs>
<clipPath id="clip0_87_2019">
<rect width="36" height="33.6434" fill="white" transform="translate(12 13.1783)"/>
</clipPath>
</defs>
</svg>
